<?xml version="1.0" encoding="iso-8859-1"?>
<!-- Uploaded to: SVG Repo, www.svgrepo.com, Generator: SVG Repo Mixer Tools -->
<svg fill="#000000" height="800px" width="800px" version="1.1" id="Layer_1" xmlns="http://www.w3.org/2000/svg" xmlns:xlink="http://www.w3.org/1999/xlink" 
	 viewBox="0 0 512 512" xml:space="preserve">
<g>
	<g>
		<path d="M495.946,16.053c-21.405-21.403-56.235-21.402-77.64-0.001L117.474,316.886l-43.698-43.698
			c-16.851-16.849-44.268-16.849-61.118,0C4.495,281.351,0,292.205,0,303.748V468.78c-0.001,11.545,4.494,22.397,12.657,30.561
			c8.165,8.164,19.018,12.658,30.56,12.657h165.034c11.544,0,22.397-4.494,30.559-12.656c8.163-8.163,12.657-19.016,12.657-30.559
			c0-11.543-4.495-22.396-12.657-30.559l-43.698-43.698L495.947,93.694C517.352,72.289,517.351,37.46,495.946,16.053z
			 M481.522,79.269L173.477,387.314c-3.983,3.984-3.983,10.442,0,14.425l50.909,50.91c4.31,4.309,6.684,10.039,6.684,16.134
			c0,6.095-2.372,11.824-6.684,16.134c-4.309,4.31-10.039,6.684-16.134,6.684H43.216c-6.094,0.001-11.824-2.372-16.134-6.684
			c-4.311-4.309-6.685-10.039-6.684-16.135V303.748c0-6.095,2.373-11.825,6.685-16.135c4.309-4.31,10.038-6.684,16.133-6.684
			c6.096,0,11.825,2.373,16.135,6.683l50.91,50.91c1.913,1.912,4.507,2.987,7.212,2.987c2.705,0,5.299-1.075,7.212-2.987
			L432.73,30.476c13.451-13.452,35.34-13.452,48.791,0.001S494.973,65.818,481.522,79.269z"/>
	</g>
</g>
<g>
	<g>
		<path d="M139.73,460.442h-2.851c-5.632,0-10.199,4.567-10.199,10.199c0,5.632,4.567,10.199,10.199,10.199h2.851
			c5.632,0,10.199-4.567,10.199-10.199C149.93,465.01,145.363,460.442,139.73,460.442z"/>
	</g>
</g>
<g>
	<g>
		<path d="M104.376,460.442H44.877c-5.632,0-10.199,4.567-10.199,10.199c0,5.632,4.567,10.199,10.199,10.199h59.499
			c5.632,0,10.199-4.567,10.199-10.199C114.575,465.01,110.008,460.442,104.376,460.442z"/>
	</g>
</g>
</svg>