<?xml version="1.0"?>
<svg width="256" height="256" xmlns="http://www.w3.org/2000/svg" xmlns:svg="http://www.w3.org/2000/svg" version="1.1" xml:space="preserve">

 <g class="layer">
  <title>Layer 1</title>
  <g fill="white" fill-rule="nonzero" id="svg_1" stroke-miterlimit="10" stroke-width="0" transform="matrix(6.25567, 0, 0, 2.87147, -497.152, 0.383737)">
   <path d="m136.68,47.03l8.52,0c0.55,0 1,0.44 1,1s-0.45,1 -1,1l-8.52,0c-0.55,0 -1,-0.45 -1,-1s0.45,-1 1,-1z" fill="white" fill-rule="nonzero" id="svg_2" stroke-miterlimit="10"/>
   <path d="m88.33,7.7c0.6,0 1.2,0.23 1.66,0.69l9.59,9.59c0.92,0.92 0.92,2.41 0,3.33l-9.45,9.45l26.89,0c0.55,0 1,0.45 1,1s-0.45,1 -1,1l-29.3,0c-0.41,0 -0.77,-0.24 -0.93,-0.62c-0.15,-0.37 -0.06,-0.8 0.22,-1.09l11.16,-11.15c0.13,-0.14 0.13,-0.37 -0.01,-0.51l-9.58,-9.58c-0.14,-0.14 -0.37,-0.14 -0.5,0l-29.78,29.78c-0.09,0.08 -0.1,0.19 -0.1,0.26c0,0.15 0.01,0.26 0.1,0.35l29.78,29.78c0.18,0.18 0.32,0.18 0.5,0l9.59,-9.59c0.14,-0.14 0.14,-0.36 0,-0.5l-11.16,-11.16c-0.29,-0.28 -0.37,-0.71 -0.22,-1.09c0.16,-0.37 0.52,-0.61 0.93,-0.61l40.14,0c0.55,0 1,0.44 1,1s-0.45,1 -1,1l-37.73,0l9.45,9.44c0.92,0.92 0.92,2.42 0,3.33l-9.59,9.59c-0.89,0.89 -2.44,0.89 -3.33,0l-29.78,-29.78c-0.46,-0.46 -0.7,-1.09 -0.68,-1.75c-0.02,-0.6 0.22,-1.22 0.68,-1.68l29.78,-29.79c0.46,-0.46 1.06,-0.69 1.67,-0.69z" fill="white" fill-rule="nonzero" id="svg_3" stroke-miterlimit="10"/>
   <path d="m125.34,30.76l8.29,0c0.56,0 1,0.44 1,1s-0.44,1 -1,1l-8.29,0c-0.55,0 -1,-0.45 -1,-1s0.45,-1 1,-1z" fill="white" fill-rule="nonzero" id="svg_4" stroke-miterlimit="10"/>
   <path d="m104.67,38.89l34.22,0c0.56,0 1,0.45 1,1s-0.44,1 -1,1l-34.22,0c-0.56,0 -1,-0.45 -1,-1s0.44,-1 1,-1z" fill="white" fill-rule="nonzero" id="svg_5" stroke-miterlimit="10"/>
  </g>
 </g>
</svg>