<svg fill="white" xmlns="http://www.w3.org/2000/svg" xmlns:xlink="http://www.w3.org/1999/xlink" version="1.1" width="456" height="256" viewBox="0 0 256 256" xml:space="preserve">

<defs>
</defs>
<g  style="stroke: none; stroke-width: 0; stroke-dasharray: none; stroke-linecap: butt; stroke-linejoin: miter; stroke-miterlimit: 10; fill: white; fill-rule: nonzero; opacity: 1;" transform="translate(1.4065934065934016 1.4065934065934016) scale(4 2.81)" >
	<path d="M 80.482 52.156 l 8.518 0 c 0.552 0 1 0.448 1 1 s -0.448 1 -1 1 l -8.518 0 c -0.552 0 -1 -0.448 -1 -1 S 79.93 52.156 80.482 52.156 z" style="stroke: none; stroke-width: ; stroke-dasharray: none; stroke-linecap: butt; stroke-linejoin: miter; stroke-miterlimit: 10; fill: white; fill-rule: nonzero; opacity: 1;" transform=" matrix(1 0 0 1 0 0) " stroke-linecap="round" />
	<path d="M 32.128 12.834 c 0.603 0 1.206 0.229 1.665 0.688 l 9.587 9.587 c 0.918 0.92 0.918 2.414 0 3.332 l -9.447 9.447 l 26.887 0 c 0.552 0 1 0.447 1 1 s -0.448 1 -1 1 l -29.301 0 c -0.404 0 -0.77 -0.243 -0.924 -0.617 c -0.155 -0.374 -0.069 -0.804 0.217 -1.09 l 11.154 -11.154 c 0.139 -0.139 0.139 -0.365 -0.001 -0.505 l -9.585 -9.585 c -0.139 -0.14 -0.365 -0.139 -0.504 0 L 2.096 44.718 C 2.012 44.802 1.997 44.909 2 44.984 c -0.003 0.15 0.012 0.257 0.096 0.341 l 29.78 29.781 c 0.181 0.18 0.321 0.184 0.504 0 l 9.586 -9.585 c 0.139 -0.139 0.139 -0.365 0 -0.504 L 30.811 53.863 c -0.286 -0.286 -0.372 -0.716 -0.217 -1.09 c 0.154 -0.374 0.52 -0.617 0.924 -0.617 l 40.141 0 c 0.552 0 1 0.448 1 1 s -0.448 1 -1 1 l -37.727 0 l 9.447 9.447 c 0.918 0.919 0.918 2.414 0 3.332 l -9.586 9.586 c -0.892 0.891 -2.444 0.89 -3.332 0 l -29.78 -29.78 c -0.464 -0.463 -0.705 -1.087 -0.68 -1.755 c -0.025 -0.593 0.216 -1.216 0.68 -1.68 l 29.78 -29.781 C 30.921 13.063 31.524 12.834 32.128 12.834 z" style="stroke: none; stroke-width: 1; stroke-dasharray: none; stroke-linecap: butt; stroke-linejoin: miter; stroke-miterlimit: 10; fill: white; fill-rule: nonzero; opacity: 1;" transform=" matrix(1 0 0 1 0 0) " stroke-linecap="round" />
	<path d="M 69.138 35.887 l 8.295 0 c 0.552 0 1 0.447 1 1 s -0.448 1 -1 1 l -8.295 0 c -0.552 0 -1 -0.447 -1 -1 S 68.586 35.887 69.138 35.887 z" style="stroke: none; stroke-width: 1; stroke-dasharray: none; stroke-linecap: butt; stroke-linejoin: miter; stroke-miterlimit: 10; fill:white; fill-rule: nonzero; opacity: 1;" transform=" matrix(0 0 0 0 ) " stroke-linecap="round" />
	<path d="M 48.467 44.021 l 34.226 0 c 0.552 0 1 0.448 1 1 s -0.448 1 -1 1 l -34.226 0 c -0.552 0 -1 -0.448 -1 -1 S 47.914 44.021 48.467 44.021 z" style="stroke: none; stroke-width: 1; stroke-dasharray: none; stroke-linecap: butt; stroke-linejoin: miter; stroke-miterlimit: 10; fill: white; fill-rule: nonzero; opacity: 1;" transform=" matrix(1 0 0 1 0 0) " stroke-linecap="round" />
</g>
</svg>