<svg xmlns="http://www.w3.org/2000/svg" xmlns:xlink="http://www.w3.org/1999/xlink" version="1.1"
     x="0px" y="0px" viewBox="0 0 100 125" enable-background="new 0 0 100 100" xml:space="preserve">
    <g>
        <path fill="#B1B8BEFF" d="M21.875,5v90h56.25V5H21.875z M50,91.979c-1.554,0-2.813-1.259-2.813-2.813c0-1.553,1.259-2.813,2.813-2.813   s2.813,1.26,2.813,2.813C52.813,90.72,51.554,91.979,50,91.979z M75.313,83.75H24.688V10.625h50.625V83.75z M42.938,40.842   c0-2.795,2.268-5.063,5.063-5.063c2.796,0,5.063,2.268,5.063,5.063c0,2.796-2.267,5.063-5.063,5.063   C45.205,45.904,42.938,43.638,42.938,40.842z M70,28.75H30c-0.828,0-1.5,0.672-1.5,1.5v21.316V70.25   c0,0.445,0.198,0.842,0.507,1.116c0.265,0.236,0.61,0.384,0.993,0.384h40c0.383,0,0.729-0.147,0.993-0.384   c0.309-0.274,0.507-0.671,0.507-1.116v-6.941V30.25C71.5,29.422,70.828,28.75,70,28.75z M68.5,59.824L57.688,47.264l-8.999,10.453   L35.938,42.904L31.5,48.072V31.75h37V59.824z M37.346,25.818h-7.691c-0.638,0-1.154-0.517-1.154-1.154v-7.692   c0-0.638,0.517-1.154,1.154-1.154h7.691c0.638,0,1.154,0.517,1.154,1.154v7.692C38.5,25.302,37.983,25.818,37.346,25.818z    M30.809,23.511h5.383v-5.386h-5.383V23.511z M70,19.817H42.25c-0.828,0-1.5-0.671-1.5-1.5c0-0.828,0.672-1.5,1.5-1.5H70   c0.828,0,1.5,0.672,1.5,1.5C71.5,19.146,70.828,19.817,70,19.817z M70,77.75H30c-0.828,0-1.5-0.671-1.5-1.5   c0-0.828,0.672-1.5,1.5-1.5h40c0.828,0,1.5,0.672,1.5,1.5C71.5,77.079,70.828,77.75,70,77.75z M60,24.817H42.25   c-0.828,0-1.5-0.671-1.5-1.5c0-0.828,0.672-1.5,1.5-1.5H60c0.828,0,1.5,0.672,1.5,1.5C61.5,24.146,60.828,24.817,60,24.817z"/>
    </g>
</svg>