<?xml version="1.0" encoding="iso-8859-1"?>
<!-- Uploaded to: SVG Repo, www.svgrepo.com, Generator: SVG Repo Mixer Tools -->
<svg height="800px" width="800px" version="1.1" id="Layer_1" xmlns="http://www.w3.org/2000/svg" xmlns:xlink="http://www.w3.org/1999/xlink" 
	 viewBox="0 0 512 512" xml:space="preserve">
<path style="fill:#B;" d="M443.119,415.283v85.149c0,6.386-5.183,11.569-11.569,11.569H80.451
	c-6.386,0-11.569-5.183-11.569-11.569v-85.149c0-41.186,32.81-74.829,73.66-76.229c0.405-0.035,55.034,1.978,64.694-58.112
	c-6.375-4.443-12.391-9.787-17.955-15.954c-13.281-14.739-23.497-33.793-29.698-54.976c-0.787,0.983-1.573,1.99-2.337,3.02
	c-2.106,2.811-3.991,5.819-5.403,8.133c-2.233,3.644-6.282,5.773-10.563,5.518c-4.269-0.266-8.052-2.858-9.834-6.745
	c-6.826-14.947-11.465-31.063-13.767-47.885c-0.856-5.877-1.388-12.043-1.597-18.73c-1.261-39.474,10.216-77.073,32.324-105.869
	c22.641-29.49,53.669-46.323,87.358-47.399c16.521-0.532,32.579,2.742,47.746,9.741c0.845-0.058,5.137-0.22,6.629-0.15
	c29.119,0.255,56.642,13.756,77.513,38.005c20.489,23.798,32.359,55.543,33.446,89.371c1.099,34.476-9.116,67.378-28.784,92.634
	c-2.233,2.869-5.623,4.466-9.128,4.466c-1.145,0-2.302-0.174-3.424-0.521c-4.605-1.423-7.832-5.553-8.121-10.354
	c-0.174-2.8-0.474-5.576-0.845-8.33c-9.244,28.414-25.602,51.587-46.033,65.955c8.503,59.581,64.29,58.146,64.694,58.181
	C410.309,340.454,443.119,374.097,443.119,415.283z M419.981,488.862v-73.579c0-29.305-23.855-53.148-53.16-53.148
	c-0.416,0-11.396-0.416-17.909-2.198c-11.315,41.151-49.134,70.757-92.911,70.757s-81.585-29.605-92.911-70.757
	c-6.675,1.92-17.492,2.198-17.909,2.198c-29.305,0-53.16,23.844-53.16,53.148v73.579H419.981z M368.891,189.697
	c6.513-15.861,9.672-33.608,9.082-51.934c-0.914-28.564-10.806-55.208-27.858-75.014c-16.498-19.182-37.947-29.825-60.368-29.976
	c-0.174,0-7.751,0.359-7.971,0.359c-1.886,0.069-3.887-0.347-5.599-1.203c-19.829-9.915-38.78-8.781-39.67-8.746
	c-26.632,0.845-51.402,14.473-69.739,38.352c-18.869,24.573-28.645,56.908-27.558,91.06c0.185,5.808,0.636,11.118,1.377,16.22
	c1.053,7.624,2.626,15.051,4.732,22.236c3.61-4.049,13.767-13.027,14.137-13.304c9.359-7.555,19.714-13.536,30.855-17.735
	c11.245-4.188,23.08-6.502,35.205-6.895c2.476-0.081,4.975-0.069,7.451,0.012c17.944,0.613,34.106-7.936,42.158-22.328
	c2.73-4.894,5.114-10.065,7.08-15.375c1.099-2.962,3.355-5.345,6.247-6.594c2.892-1.261,6.178-1.273,9.093-0.046
	c27.916,11.731,50.777,34.129,64.359,63.04C364.669,177.63,366.994,183.588,368.891,189.697z M335.468,173.997
	c0.058-0.683,0.174-1.354,0.347-2.001c-9.278-15.572-21.97-28.217-36.917-36.778c-1.134,2.325-2.325,4.628-3.575,6.872
	c-11.893,21.264-34.916,34.21-60.518,34.21c-0.879,0-6.583-0.116-8.55-0.058c-9.614,0.312-18.973,2.14-27.824,5.426
	c-6.872,2.603-13.397,6.074-19.482,10.343c9.73,47.757,41.325,81.747,76.992,81.747c19.17,0,37.773-9.834,52.385-27.673
	C323.575,227.458,333.212,201.856,335.468,173.997z M256,407.554c33.99,0,63.225-23.474,71.115-55.786
	c-22.444-12.113-38.976-33.816-44.09-59.581c-8.642,3.066-17.724,4.709-27.083,4.709c-9.186,0-18.244-1.597-26.979-4.685
	c-5.114,25.753-21.646,47.445-44.078,59.558C192.775,384.081,222.01,407.554,256,407.554z"/>
<path style="fill:#94E7EF;" d="M419.981,415.283v73.579H92.02v-73.579c0-29.305,23.855-53.148,53.16-53.148
	c0.416,0,11.234-0.278,17.909-2.198c11.326,41.151,49.134,70.757,92.911,70.757s81.597-29.605,92.911-70.757
	c6.513,1.782,17.492,2.198,17.909,2.198C396.125,362.134,419.981,385.978,419.981,415.283z"/>
<path style="fill:#9B8CCC;" d="M377.973,137.763c0.59,18.325-2.568,36.072-9.082,51.934c-1.897-6.108-4.223-12.067-6.988-17.874
	c-13.582-28.911-36.443-51.309-64.359-63.04c-2.915-1.226-6.201-1.215-9.093,0.046c-2.892,1.249-5.148,3.633-6.247,6.594
	c-1.967,5.31-4.35,10.482-7.08,15.375c-8.052,14.392-24.214,22.942-42.158,22.328c-2.476-0.081-4.975-0.093-7.451-0.012
	c-12.124,0.393-23.96,2.707-35.205,6.895c-11.141,4.2-21.495,10.181-30.855,17.735c-0.37,0.278-10.528,9.255-14.137,13.304
	c-2.106-7.184-3.679-14.612-4.732-22.236c-0.74-5.102-1.192-10.412-1.377-16.22c-1.087-34.152,8.688-66.488,27.558-91.06
	c18.337-23.879,43.106-37.507,69.739-38.352c0.891-0.035,19.841-1.168,39.67,8.746c1.712,0.856,3.714,1.273,5.599,1.203
	c0.22,0,7.798-0.359,7.971-0.359c22.421,0.15,43.87,10.794,60.368,29.976C367.168,82.555,377.059,109.199,377.973,137.763z"/>
<g>
	<path style="fill:#FFFFFF;" d="M335.815,171.996c-0.174,0.648-0.289,1.319-0.347,2.001c-2.256,27.858-11.893,53.461-27.141,72.087
		c-14.612,17.84-33.215,27.673-52.385,27.673c-35.668,0-67.263-33.99-76.992-81.747c6.085-4.269,12.61-7.74,19.482-10.343
		c8.85-3.286,18.21-5.114,27.824-5.426c1.967-0.058,7.67,0.058,8.55,0.058c25.602,0,48.625-12.946,60.518-34.21
		c1.249-2.244,2.441-4.547,3.575-6.872C313.846,143.779,326.537,156.424,335.815,171.996z"/>
	<path style="fill:#FFFFFF;" d="M327.115,351.768c-7.89,32.313-37.125,55.786-71.115,55.786s-63.225-23.474-71.115-55.786
		c22.432-12.113,38.965-33.805,44.078-59.558c8.735,3.089,17.793,4.685,26.979,4.685c9.359,0,18.441-1.643,27.083-4.709
		C288.139,317.952,304.671,339.655,327.115,351.768z"/>
</g>
</svg>